<svg width="48" height="48" viewBox="0 0 48 48" fill="none" xmlns="http://www.w3.org/2000/svg"><circle cx="24" cy="24" r="24" fill="#E50914"/><path d="M13.35 26.8173V19.4345C12.7547 19.1345 12.3469 18.5204 12.3469 17.8126C12.3469 16.8188 13.1391 16.0126 14.1375 16.0126C15.1359 16.0126 15.9422 16.8235 15.9422 17.8173C15.9422 18.0845 15.8859 18.347 15.7734 18.5813L20.0016 23.147L22.6125 17.9298C22.3406 17.611 22.1859 17.1985 22.1859 16.7673C22.1859 15.7735 22.9922 14.9673 23.9906 14.9673C24.9891 14.9673 25.7953 15.7735 25.7953 16.7673C25.7953 17.1985 25.6359 17.611 25.3688 17.9298L27.9797 23.147L32.2078 18.5813C32.1 18.3423 32.0391 18.0798 32.0391 17.8126C32.0391 16.8142 32.8453 16.0079 33.8438 16.0079C34.8422 16.0079 35.6484 16.8188 35.6484 17.8126C35.6484 18.5204 35.2406 19.1345 34.6453 19.4298V26.8173H13.35ZM35.25 28.3173H12.75C12.3375 28.3173 12 28.6548 12 29.0673V32.2782C12 32.6907 12.3375 33.0282 12.75 33.0282H35.25C35.6625 33.0282 36 32.6907 36 32.2782V29.0673C36 28.6548 35.6625 28.3173 35.25 28.3173Z" fill="white"/></svg>